<?xml version="1.0" encoding="utf-8"?>
<!-- Generator: Adobe Illustrator 23.0.0, SVG Export Plug-In . SVG Version: 6.00 Build 0)  -->
<svg version="1.1" id="Layer_1" xmlns="http://www.w3.org/2000/svg" xmlns:xlink="http://www.w3.org/1999/xlink" x="0px" y="0px"
	 viewBox="0 0 150 150" style="enable-background:new 0 0 150 150;" xml:space="preserve">
<style type="text/css">
	.st0{fill:#097243;}
	.st1{fill:#13A564;}
	.st2{fill:#4D7BBE;}
</style>
<g>
	<path class="st0" d="M75,74.97l18.07,54.22c0.01,0.01,0.01,0.02,0.01,0.04c0.79,2.19,2.06,4.15,3.65,5.78l2-4.17L97.53,14.01
		l-0.81-3.82l-0.05-0.13l-1.67,1.42L74.32,73.42L75,74.97"/>
	<path class="st1" d="M108.35,139.96l31.65,0.01l-0.03-0.07L96.74,10.18v124.83C99.68,138.05,103.78,139.96,108.35,139.96"/>
	<path class="st2" d="M53.33,10.06l-0.01,0.05l-0.02-0.05L10.03,139.89L10,139.96h31.65c4.56,0,8.67-1.91,11.6-4.96
		c1.59-1.64,2.86-3.59,3.65-5.78c0.01-0.02,0.01-0.03,0.01-0.03L96.69,10.04H53.32L53.33,10.06L53.33,10.06"/>
</g>
</svg>
