<?xml version="1.0" encoding="utf-8"?>
<!-- Generator: Adobe Illustrator 20.1.0, SVG Export Plug-In . SVG Version: 6.00 Build 0)  -->
<svg version="1.1" id="Layer_1" xmlns="http://www.w3.org/2000/svg" xmlns:xlink="http://www.w3.org/1999/xlink" x="0px" y="0px"
	 viewBox="0 0 150 150" style="enable-background:new 0 0 150 150;" xml:space="preserve">
<style type="text/css">
	.st0{fill:#0D9DD9;}
</style>
<path class="st0" d="M77.3,68h-2.7v19.4c0,1.5,1.3,2.8,2.7,2.8h2.7V70.6C80,69.1,78.8,68,77.3,68z M77.3,59.8c-1.6,0-3,1.4-3,3
	s1.4,3,3,3s3-1.4,3-3S79,59.8,77.3,59.8z M97.6,68h2.7c1.5,0,2.7,1.3,2.7,2.8v9.6c0,5.4-4.3,9.7-9.7,9.7c-5.3,0-9.7-4.4-9.7-9.7V68
	h2.7c1.5,0,2.7,1.3,2.7,2.8v9.6c0,2.4,1.9,4.3,4.3,4.3c2.4,0,4.3-1.9,4.3-4.3V68H97.6z M70.8,77.7v12.4h-2.8c-1.5,0-2.7-1.3-2.7-2.8
	v-9.6c0-2.4-1.9-4.3-4.3-4.3s-4.3,1.9-4.3,4.3v2.5c0,5.4-4.3,9.7-9.7,9.7c-5.3,0-9.7-4.4-9.7-9.7V61.4h2.9c1.5,0,2.7,1.3,2.7,2.8V68
	h4.5v2.8c0,1.5-1.1,2.8-2.7,2.8h-1.8v6.8c0,2.4,1.9,4.3,4.3,4.3c2.4,0,4.3-1.9,4.3-4.3V61.4h2.5c1.5,0,2.7,1.3,2.7,2.8V69
	c1.3-0.6,2.8-1,4.3-1C66.5,68,70.8,72.4,70.8,77.7z M140,77.7v12.4h-2.7c-1.5,0-2.7-1.3-2.7-2.8v-9.6c0-2.4-1.9-4.3-4.3-4.3
	c-2.4,0-4.3,1.9-4.3,4.3v12.4h-2.7h-0.1c-1.4-0.1-2.5-1.3-2.5-2.8v-9.6c0-2.4-1.9-4.3-4.3-4.3c-2.4,0-4.3,1.9-4.3,4.3v12.4l0,0l0,0
	h-2.7c-1.5,0-2.7-1.3-2.7-2.8V68h2.7c0.9,0,1.8,0.5,2.3,1.3c1.4-0.8,3-1.3,4.7-1.3c2.8,0,5.2,1.1,6.9,3c1.8-1.9,4.2-3,6.9-3
	C135.7,68,140,72.3,140,77.7z M30.8,68h-2.7v19.4c0,1.5,1.3,2.8,2.7,2.8h2.7V70.6C33.5,69.1,32.3,68,30.8,68z M30.8,59.8
	c-1.6,0-3,1.4-3,3s1.4,3,3,3s3-1.4,3-3S32.5,59.8,30.8,59.8z M25,90.1h-5.3c-5.4,0-9.7-4.4-9.7-9.7V61.4h2.7c1.5,0,2.7,1.3,2.7,2.8
	v16c0,2.4,1.9,4.3,4.3,4.3h2.5c1.6,0,2.9,1.3,2.9,2.9C25,87.4,25,90.1,25,90.1z"/>
</svg>
