<?xml version="1.0" encoding="utf-8"?>
<!-- Generator: Adobe Illustrator 20.1.0, SVG Export Plug-In . SVG Version: 6.00 Build 0)  -->
<svg version="1.1" id="Layer_1" xmlns="http://www.w3.org/2000/svg" xmlns:xlink="http://www.w3.org/1999/xlink" x="0px" y="0px"
	 viewBox="0 0 150 150" style="enable-background:new 0 0 150 150;" xml:space="preserve">
<style type="text/css">
	.st0{fill:#2350A1;}
</style>
<g>
	<path id="path4256_1_" class="st0" d="M52.2,113.1c-7.9-1.9-12.2-8.2-12.2-17.5c0-3,0.2-4.4,1-6.3c1.7-4.7,6.5-8.2,12.9-9.5
		c3.2-0.7,4.1-1.3,4.1-3c0-0.5,0.4-2,0.9-3.4c2.1-6.1,6-11.1,10-13.1c4.3-2.1,6.5-2.6,11.7-2.6c7.4,0,11.1,1.6,16.3,7l2.8,3l2.5-0.9
		c12.3-4.2,24.6,3,25.5,15.1l0.3,3.3l2.4,0.9c6.9,2.5,10.2,7.7,9.6,15.3c-0.4,5-2.7,9-6.5,11l-1.7,1L93,113.5
		C63.3,113.6,53.8,113.5,52.2,113.1L52.2,113.1z"/>
	<path id="path4248_1_" class="st0" d="M23.1,107.7c-4.6-1.1-9.4-5.1-11.8-9.8c-1.3-2.6-1.3-3-1.3-7.7c0-4.4,0.1-5.1,1.2-7.3
		c2.2-4.6,6.4-8,11.6-9.3c1.1-0.3,2.1-0.7,2.3-1s0.4-1.7,0.4-3.2c0.4-9.2,6.5-17.4,14.9-20c4.6-1.4,10.4-1.1,15.3,1
		c1.5,0.7,1.4,0.8,4.7-3.7c2-2.6,6-5.8,9.2-7.5c3.6-1.7,7.2-2.6,11.7-2.6c12.3,0,22.9,7.7,26.8,19.5c1.3,3.8,1.2,4.8-0.3,4.8
		c-0.7,0-2.5,0.4-4.1,0.8l-2.9,0.8l-2.6-2.6c-7.5-7.5-19.8-9.2-30.3-4c-4.1,2-7.5,5-10.1,8.9c-1.8,2.8-4.1,7.9-4.1,9.2
		c0,0.9-0.8,1.3-3.9,2.4c-9.6,3.2-15.3,10.5-15.3,19.8c0,3.4,0.9,7.6,2.1,9.9c0.5,0.9,0.7,1.7,0.6,1.9
		C36.8,108.3,24.7,108.1,23.1,107.7L23.1,107.7z"/>
</g>
</svg>
